<svg fill="none" viewBox="0 0 20 20" xmlns="http://www.w3.org/2000/svg"><path d="M2.75 4.5a.75.75 0 0 0 0 1.5h14.5a.75.75 0 0 0 0-1.5H2.75ZM2.75 7.5a.75.75 0 0 0 0 1.5h8.5a.75.75 0 0 0 0-1.5h-8.5ZM2.75 10.5a.75.75 0 0 0 0 1.5h6.633a1.496 1.496 0 0 1-.284-1.5H2.75ZM2.75 13.5h6.628L7.876 15H2.75a.75.75 0 0 1 0-1.5ZM14.496 7.439a.5.5 0 0 0-.992 0l-.098.791a2.5 2.5 0 0 1-2.176 2.176l-.791.098a.5.5 0 0 0 0 .992l.791.098a2.5 2.5 0 0 1 2.176 2.176l.098.791a.5.5 0 0 0 .992 0l.098-.791a2.5 2.5 0 0 1 2.176-2.176l.791-.098a.5.5 0 0 0 0-.992l-.791-.098a2.5 2.5 0 0 1-2.176-2.176l-.098-.791ZM11.853 13.147a.5.5 0 0 1 0 .707l-4 3.996a.5.5 0 0 1-.706-.707l3.999-3.997a.5.5 0 0 1 .707 0Z" fill="#ffffff" class="fill-212121"></path></svg>