<?xml version="1.0" encoding="UTF-8" standalone="no"?>
<!DOCTYPE svg PUBLIC "-//W3C//DTD SVG 1.1//EN" "http://www.w3.org/Graphics/SVG/1.1/DTD/svg11.dtd">
<svg width="100%" height="100%" viewBox="0 0 41 41" version="1.1" xmlns="http://www.w3.org/2000/svg" xmlns:xlink="http://www.w3.org/1999/xlink" xml:space="preserve" xmlns:serif="http://www.serif.com/" style="fill-rule:evenodd;clip-rule:evenodd;stroke-linejoin:round;stroke-miterlimit:2;">
    <g transform="matrix(1,0,0,1,-587.321,-351.303)">
        <g transform="matrix(2.90553,0,0,2.90553,-126.675,-31.4899)">
            <g transform="matrix(1.06083,0,0,7.07946,-16.2886,-853.558)">
                <rect x="247" y="139.178" width="13" height="0.194" style="fill:rgb(207,207,207);"/>
            </g>
        </g>
        <g transform="matrix(2.90553,0,0,2.90553,-126.675,-31.4899)">
            <g transform="matrix(1.06083,0,0,7.07946,-16.2886,-841.019)">
                <rect x="247" y="139.178" width="13" height="0.194" style="fill:rgb(207,207,207);"/>
            </g>
        </g>
        <g transform="matrix(2.90553,0,0,2.90553,-126.675,-31.4899)">
            <g id="arrow-up" transform="matrix(0.344172,0,0,0.344172,43.5978,10.8379)">
                <path d="M605.894,380.14L605.894,362.746L603.657,364.975C603.482,365.158 603.231,365.265 602.972,365.265C602.714,365.265 602.463,365.158 602.288,364.975L601.717,364.405C601.534,364.222 601.428,363.978 601.428,363.72C601.428,363.461 601.534,363.21 601.717,363.027L606.671,358.073C606.846,357.891 607.097,357.792 607.355,357.792C607.614,357.792 607.865,357.891 608.048,358.073L613.002,363.027C613.177,363.21 613.283,363.461 613.283,363.72C613.283,363.978 613.177,364.222 613.002,364.405L612.431,364.975C612.248,365.158 611.997,365.265 611.739,365.265C611.48,365.265 611.229,365.158 611.054,364.975L608.817,362.746L608.817,380.14L611.054,377.91C611.229,377.728 611.48,377.621 611.739,377.621C611.997,377.621 612.248,377.728 612.423,377.91L612.994,378.481C613.177,378.664 613.283,378.907 613.283,379.166C613.283,379.425 613.177,379.676 612.994,379.858L608.04,384.812C607.865,384.995 607.614,385.094 607.355,385.094C607.097,385.094 606.846,384.995 606.663,384.812L601.709,379.858C601.534,379.676 601.428,379.425 601.428,379.166C601.428,378.907 601.534,378.664 601.709,378.481L602.28,377.91C602.463,377.728 602.714,377.621 602.972,377.621C603.231,377.621 603.482,377.728 603.657,377.91L605.894,380.14Z" style="fill:rgb(207,207,207);fill-rule:nonzero;"/>
            </g>
        </g>
    </g>
</svg>
