<?xml version="1.0" encoding="UTF-8" standalone="no"?>
<!DOCTYPE svg PUBLIC "-//W3C//DTD SVG 1.1//EN" "http://www.w3.org/Graphics/SVG/1.1/DTD/svg11.dtd">
<svg width="100%" height="100%" viewBox="0 0 41 41" version="1.1" xmlns="http://www.w3.org/2000/svg" xmlns:xlink="http://www.w3.org/1999/xlink" xml:space="preserve" xmlns:serif="http://www.serif.com/" style="fill-rule:evenodd;clip-rule:evenodd;stroke-linejoin:round;stroke-miterlimit:2;">
    <g transform="matrix(1,0,0,1,-587.321,-97.6619)">
        <g transform="matrix(2.90553,0,0,2.90553,-126.675,-285.131)">
            <g transform="matrix(1.06083,0,0,7.07946,-16.2886,-853.558)">
                <rect x="247" y="139.178" width="13" height="0.194" style="fill:rgb(103,103,103);"/>
            </g>
        </g>
        <g transform="matrix(2.90553,0,0,2.90553,-126.675,-285.131)">
            <g transform="matrix(1.06083,0,0,7.07946,-16.2886,-841.019)">
                <rect x="247" y="139.178" width="13" height="0.194" style="fill:rgb(103,103,103);"/>
            </g>
        </g>
        <g transform="matrix(2.90553,0,0,2.90553,-126.675,-285.131)">
            <g id="arrow-up" transform="matrix(0.344172,0,0,0.344172,43.5978,98.1339)">
                <path d="M605.894,126.499L605.894,109.105L603.657,111.334C603.482,111.517 603.231,111.624 602.972,111.624C602.714,111.624 602.463,111.517 602.288,111.334L601.717,110.764C601.534,110.581 601.428,110.337 601.428,110.079C601.428,109.82 601.534,109.569 601.717,109.386L606.671,104.432C606.846,104.25 607.097,104.151 607.355,104.151C607.614,104.151 607.865,104.25 608.048,104.432L613.002,109.386C613.177,109.569 613.283,109.82 613.283,110.079C613.283,110.337 613.177,110.581 613.002,110.764L612.431,111.334C612.248,111.517 611.997,111.624 611.739,111.624C611.48,111.624 611.229,111.517 611.054,111.334L608.817,109.105L608.817,126.499L611.054,124.269C611.229,124.087 611.48,123.98 611.739,123.98C611.997,123.98 612.248,124.087 612.423,124.269L612.994,124.84C613.177,125.023 613.283,125.266 613.283,125.525C613.283,125.784 613.177,126.035 612.994,126.217L608.04,131.171C607.865,131.354 607.614,131.453 607.355,131.453C607.097,131.453 606.846,131.354 606.663,131.171L601.709,126.217C601.534,126.035 601.428,125.784 601.428,125.525C601.428,125.266 601.534,125.023 601.709,124.84L602.28,124.269C602.463,124.087 602.714,123.98 602.972,123.98C603.231,123.98 603.482,124.087 603.657,124.269L605.894,126.499Z" style="fill:rgb(45,45,45);fill-rule:nonzero;"/>
            </g>
        </g>
    </g>
</svg>
