<?xml version="1.0" encoding="UTF-8" standalone="no"?>
<!DOCTYPE svg PUBLIC "-//W3C//DTD SVG 1.1//EN" "http://www.w3.org/Graphics/SVG/1.1/DTD/svg11.dtd">
<svg width="100%" height="100%" viewBox="0 0 512 512" version="1.1" xmlns="http://www.w3.org/2000/svg" xmlns:xlink="http://www.w3.org/1999/xlink" xml:space="preserve" xmlns:serif="http://www.serif.com/" style="fill-rule:evenodd;clip-rule:evenodd;stroke-linejoin:round;stroke-miterlimit:2;">
    <path d="M383.6,322.7L278.6,423C272.8,429 264.9,432 256.2,432C247.5,432 239.7,429 233.8,423L128.4,322.7C115.9,310.8 115.9,291.4 128.4,279.5C140.9,267.6 161.1,267.6 173.6,279.5L224,327.7L224,110.7C224,93.8 238.3,80.1 256,80.1C273.7,80.1 288,93.8 288,110.7L288,327.7L338.4,279.5C350.9,267.6 371.1,267.6 383.6,279.5C396.1,291.4 396.1,310.7 383.6,322.7Z" style="fill:rgb(103,103,103);fill-rule:nonzero;"/>
</svg>
