<?xml version="1.0" encoding="UTF-8" standalone="no"?>
<!DOCTYPE svg PUBLIC "-//W3C//DTD SVG 1.1//EN" "http://www.w3.org/Graphics/SVG/1.1/DTD/svg11.dtd">
<svg width="100%" height="100%" viewBox="0 0 16 16" version="1.1" xmlns="http://www.w3.org/2000/svg" xmlns:xlink="http://www.w3.org/1999/xlink" xml:space="preserve" xmlns:serif="http://www.serif.com/" style="fill-rule:evenodd;clip-rule:evenodd;stroke-linejoin:round;stroke-miterlimit:2;">
    <path d="M3.221,3.739L5.482,6.008L7.7,3.784L7,3.084L5.988,4.091L5.98,2.491C5.978,2.211 6.201,1.977 6.48,1.965L8,1.965L8,1L6.48,1C5.668,1.001 5,1.67 5,2.482C5,2.484 5,2.487 5,2.489L5,4.1L3.927,3.033L3.221,3.739ZM9.89,5.533L9.901,5.533C10.084,5.844 10.352,6 10.707,6C11.1,6 11.413,5.832 11.647,5.497C11.883,5.162 12,4.717 12,4.164C12,3.653 11.9,3.251 11.699,2.957C11.498,2.662 11.211,2.515 10.839,2.515C10.434,2.515 10.121,2.709 9.901,3.096L9.891,3.096L9.891,1L9,1L9,5.919L9.89,5.919L9.89,5.533ZM9.876,4.472L9.876,4.132C9.876,3.884 9.934,3.684 10.051,3.531C10.153,3.386 10.319,3.3 10.496,3.301C10.673,3.294 10.839,3.384 10.932,3.534C11.036,3.688 11.087,3.902 11.087,4.177C11.087,4.507 11.031,4.764 10.918,4.945C10.824,5.115 10.642,5.219 10.448,5.215C10.285,5.217 10.131,5.138 10.037,5.004C9.926,4.85 9.869,4.662 9.877,4.472L9.876,4.472ZM9,12.769C8.744,12.923 8.375,13 7.892,13C7.329,13 6.872,12.822 6.523,12.467C6.174,12.112 6,11.654 6,11.093C6,10.445 6.186,9.935 6.56,9.563C6.934,9.187 7.435,9 8.06,9C8.493,9 8.806,9.06 9,9.179L9,10.177C8.775,9.997 8.496,9.9 8.208,9.901C7.883,9.901 7.625,10.001 7.434,10.199C7.244,10.395 7.151,10.667 7.151,11.015C7.151,11.353 7.241,11.618 7.423,11.812C7.605,12.003 7.854,12.099 8.172,12.099C8.454,12.099 8.73,12.007 9,11.823L9,12.769ZM4,7L3,8L3,14L4,15L11,15L12,14L12,8L11,7L4,7ZM4,8L11,8L11,14L4,14L4,8Z" style="fill:rgb(207,207,207);"/>
</svg>
