<?xml version="1.0" encoding="UTF-8" standalone="no"?>
<!DOCTYPE svg PUBLIC "-//W3C//DTD SVG 1.1//EN" "http://www.w3.org/Graphics/SVG/1.1/DTD/svg11.dtd">
<svg width="100%" height="100%" viewBox="0 0 16 16" version="1.1" xmlns="http://www.w3.org/2000/svg" xmlns:xlink="http://www.w3.org/1999/xlink" xml:space="preserve" xmlns:serif="http://www.serif.com/" style="fill-rule:evenodd;clip-rule:evenodd;stroke-linejoin:round;stroke-miterlimit:2;">
    <path d="M11.6,2.677C11.747,2.367 11.956,2.212 12.226,2.212C12.474,2.212 12.666,2.33 12.799,2.565C12.933,2.801 13,3.122 13,3.531C13,3.974 12.922,4.329 12.765,4.598C12.609,4.866 12.4,5 12.138,5C11.901,5 11.722,4.875 11.601,4.626L11.593,4.626L11.593,4.936L11,4.936L11,1L11.593,1L11.593,2.677L11.601,2.677L11.6,2.677ZM11.584,3.777C11.578,3.926 11.615,4.074 11.691,4.203C11.762,4.316 11.854,4.372 11.965,4.372C12.101,4.372 12.205,4.3 12.279,4.156C12.354,4.011 12.392,3.806 12.392,3.541C12.392,3.321 12.357,3.151 12.288,3.027C12.221,2.903 12.124,2.84 11.998,2.84C11.878,2.84 11.779,2.902 11.701,3.025C11.617,3.171 11.577,3.337 11.584,3.505L11.584,3.777ZM4.12,7.695L2,5.568L2.662,4.906L3.668,5.906L3.668,4.396C3.668,4.394 3.668,4.392 3.668,4.39C3.668,3.629 4.294,3.002 5.055,3L7.4,3L7.4,3.905L5.055,3.905C4.793,3.917 4.585,4.136 4.587,4.398L4.594,5.898L5.543,4.954L6.199,5.61L4.119,7.695L4.12,7.695ZM9.356,4.93L10,4.93L10,3.22C10,2.408 9.685,2 9.056,2C8.921,2 8.771,2.024 8.606,2.073C8.469,2.109 8.338,2.166 8.218,2.24L8.218,2.905C8.455,2.702 8.705,2.601 8.968,2.601C9.229,2.601 9.36,2.757 9.36,3.07L8.76,3.173C8.254,3.259 8,3.579 8,4.134C8,4.397 8.061,4.607 8.183,4.765C8.304,4.921 8.493,5.008 8.69,5C8.98,5 9.199,4.84 9.347,4.52L9.356,4.52L9.356,4.93ZM9.36,3.575L9.36,3.768C9.366,3.922 9.324,4.074 9.24,4.204C9.172,4.311 9.053,4.375 8.927,4.374C8.843,4.377 8.762,4.342 8.707,4.279C8.652,4.208 8.624,4.12 8.627,4.031C8.627,3.809 8.737,3.68 8.959,3.642L9.359,3.575L9.36,3.575ZM7,12.93L6.356,12.93L6.356,12.52L6.347,12.52C6.199,12.84 5.98,13 5.69,13C5.493,13.008 5.304,12.921 5.183,12.765C5.061,12.607 5,12.397 5,12.135C5,11.579 5.254,11.259 5.76,11.173L6.36,11.07C6.36,10.757 6.23,10.6 5.968,10.6C5.705,10.6 5.455,10.702 5.218,10.905L5.218,10.24C5.313,10.177 5.442,10.121 5.606,10.073C5.771,10.024 5.921,10 6.056,10C6.686,10 7,10.407 7,11.22L7,12.93ZM6.36,11.768L6.36,11.575L5.96,11.643C5.738,11.68 5.627,11.809 5.627,12.031C5.627,12.131 5.654,12.214 5.707,12.279C5.762,12.342 5.843,12.377 5.927,12.374C6.053,12.375 6.171,12.31 6.239,12.204C6.319,12.088 6.359,11.944 6.359,11.768L6.36,11.768ZM9.262,13C9.583,13 9.83,12.942 10,12.827L10,12.117C9.844,12.246 9.65,12.319 9.448,12.324C9.257,12.333 9.072,12.254 8.948,12.109C8.828,11.964 8.767,11.764 8.767,11.511C8.767,11.251 8.83,11.047 8.956,10.899C9.085,10.75 9.275,10.667 9.472,10.676C9.666,10.676 9.842,10.745 10,10.883L10,10.134C9.871,10.044 9.662,10 9.374,10C8.957,10 8.623,10.14 8.373,10.422C8.124,10.702 8,11.084 8,11.57C8,11.99 8.116,12.334 8.349,12.6C8.581,12.867 8.886,13 9.262,13ZM2,9L3,8L12,8L13,9L13,14L12,15L3,15L2,14L2,9ZM3,9L3,14L12,14L12,9L3,9ZM6,7L7,6L14,6L15,7L15,12L14,13L14,7L6,7Z" style="fill:rgb(207,207,207);"/>
</svg>
