<?xml version="1.0" encoding="UTF-8" standalone="no"?>
<!DOCTYPE svg PUBLIC "-//W3C//DTD SVG 1.1//EN" "http://www.w3.org/Graphics/SVG/1.1/DTD/svg11.dtd">
<svg width="100%" height="100%" viewBox="0 0 640 640" version="1.1" xmlns="http://www.w3.org/2000/svg" xmlns:xlink="http://www.w3.org/1999/xlink" xml:space="preserve" xmlns:serif="http://www.serif.com/" style="fill-rule:evenodd;clip-rule:evenodd;stroke-linejoin:round;stroke-miterlimit:2;">
    <path d="M173.3,66.5C181.4,62.4 191.2,63.3 198.4,68.8L518.4,308.7C526.7,314.9 530,325.7 526.8,335.5C523.6,345.3 514.4,351.9 504,351.9L351.7,351.9L440.6,529.6C448.5,545.4 442.1,564.6 426.3,572.5C410.5,580.4 391.3,574 383.4,558.2L294.5,380.5L203.2,502.3C197,510.6 186.2,513.9 176.4,510.7C166.6,507.5 160,498.3 160,488L160,88C160,78.9 165.1,70.6 173.3,66.5Z" style="fill:rgb(72,72,72);fill-rule:nonzero;"/>
</svg>
