<svg fill="none" viewBox="0 0 15 15" xmlns="http://www.w3.org/2000/svg"><circle cx="4.5" cy="2.5" fill="#b0b0b0" r=".6" class="fill-000000"></circle><circle cx="4.5" cy="4.5" fill="#b0b0b0" r=".6" class="fill-000000"></circle><circle cx="4.5" cy="6.499" fill="#b0b0b0" r=".6" class="fill-000000"></circle><circle cx="4.5" cy="8.499" fill="#b0b0b0" r=".6" class="fill-000000"></circle><circle cx="4.5" cy="10.498" fill="#b0b0b0" r=".6" class="fill-000000"></circle><circle cx="4.5" cy="12.498" fill="#b0b0b0" r=".6" class="fill-000000"></circle><circle cx="6.5" cy="2.5" fill="#b0b0b0" r=".6" class="fill-000000"></circle><circle cx="6.5" cy="4.5" fill="#b0b0b0" r=".6" class="fill-000000"></circle><circle cx="6.5" cy="6.499" fill="#b0b0b0" r=".6" class="fill-000000"></circle><circle cx="6.5" cy="8.499" fill="#b0b0b0" r=".6" class="fill-000000"></circle><circle cx="6.5" cy="10.498" fill="#b0b0b0" r=".6" class="fill-000000"></circle><circle cx="6.5" cy="12.498" fill="#b0b0b0" r=".6" class="fill-000000"></circle><circle cx="8.499" cy="2.5" fill="#b0b0b0" r=".6" class="fill-000000"></circle><circle cx="8.499" cy="4.5" fill="#b0b0b0" r=".6" class="fill-000000"></circle><circle cx="8.499" cy="6.499" fill="#b0b0b0" r=".6" class="fill-000000"></circle><circle cx="8.499" cy="8.499" fill="#b0b0b0" r=".6" class="fill-000000"></circle><circle cx="8.499" cy="10.498" fill="#b0b0b0" r=".6" class="fill-000000"></circle><circle cx="8.499" cy="12.498" fill="#b0b0b0" r=".6" class="fill-000000"></circle><circle cx="10.499" cy="2.5" fill="#b0b0b0" r=".6" class="fill-000000"></circle><circle cx="10.499" cy="4.5" fill="#b0b0b0" r=".6" class="fill-000000"></circle><circle cx="10.499" cy="6.499" fill="#b0b0b0" r=".6" class="fill-000000"></circle><circle cx="10.499" cy="8.499" fill="#b0b0b0" r=".6" class="fill-000000"></circle><circle cx="10.499" cy="10.498" fill="#b0b0b0" r=".6" class="fill-000000"></circle><circle cx="10.499" cy="12.498" fill="#b0b0b0" r=".6" class="fill-000000"></circle></svg>