<?xml version="1.0" encoding="UTF-8" standalone="no"?>
<!DOCTYPE svg PUBLIC "-//W3C//DTD SVG 1.1//EN" "http://www.w3.org/Graphics/SVG/1.1/DTD/svg11.dtd">
<svg width="100%" height="100%" viewBox="0 0 640 640" version="1.1" xmlns="http://www.w3.org/2000/svg" xmlns:xlink="http://www.w3.org/1999/xlink" xml:space="preserve" xmlns:serif="http://www.serif.com/" style="fill-rule:evenodd;clip-rule:evenodd;stroke-linejoin:round;stroke-miterlimit:2;">
    <path d="M100.4,417.2C104.5,402.6 112.2,389.3 123,378.5L338.1,163.4L476,301.3L260.9,516.4C250.2,527.1 236.8,534.9 222.2,539L94.4,574.6C86.1,576.9 77.1,574.6 71,568.4C64.9,562.2 62.6,553.3 64.9,545L100.4,417.2ZM156,413.5C151.6,418.2 148.4,423.9 146.7,430.1L122.6,517L209.5,492.9C215.9,491.1 221.7,487.8 226.5,483.2L155.9,413.5L156,413.5ZM510,267.4C493.4,250.8 458.7,216.1 406,163.4L372,129.5C398.5,103 413.4,88.1 416.9,84.6C430.4,71 448.8,63.4 468,63.4C487.2,63.4 505.6,71 519.1,84.6L554.8,120.3C568.4,133.9 576,152.3 576,171.4C576,190.5 568.4,209 554.8,222.5C551.3,226 536.4,240.9 509.9,267.4L510,267.4Z" style="fill:white;fill-rule:nonzero;"/>
</svg>
