<svg xmlns="http://www.w3.org/2000/svg" width="512" height="512" viewBox="0 0 24 24"><path fill="#ffffff" d="M21.447 9.559a1.83 1.83 0 0 1-.25.82a2 2 0 0 1-.56.63a.71.71 0 0 1-.34.13l-1.76.23a1 1 0 0 0-.52.26c-.53.51-1.07 1-1.81 1.78l-.85.84a.93.93 0 0 0-.23.41l-.94 3.78a.56.56 0 0 1 0 .12a2 2 0 0 1-1.44 1.15h-.36a2.25 2.25 0 0 1-.58-.08a1.94 1.94 0 0 1-.81-.49l-2.54-2.53l-4.67 4.67a.75.75 0 0 1-1.06-1.06l4.67-4.67l-2.5-2.5a2 2 0 0 1-.48-.82a1.8 1.8 0 0 1-.05-.95a1.94 1.94 0 0 1 .39-.85a2 2 0 0 1 .75-.58h.12l3.74-1a1 1 0 0 0 .44-.25c1.39-1.37 1.87-1.85 2.63-2.67a.86.86 0 0 0 .23-.5l.24-1.77a.71.71 0 0 1 .13-.35a2 2 0 0 1 2.28-.69a2 2 0 0 1 .72.46l4.88 4.9a2 2 0 0 1 .57 1.55z"/></svg>