<?xml version="1.0" encoding="UTF-8" standalone="no"?>
<!DOCTYPE svg PUBLIC "-//W3C//DTD SVG 1.1//EN" "http://www.w3.org/Graphics/SVG/1.1/DTD/svg11.dtd">
<svg width="100%" height="100%" viewBox="0 0 640 640" version="1.1" xmlns="http://www.w3.org/2000/svg" xmlns:xlink="http://www.w3.org/1999/xlink" xml:space="preserve" xmlns:serif="http://www.serif.com/" style="fill-rule:evenodd;clip-rule:evenodd;stroke-linejoin:round;stroke-miterlimit:2;">
    <path d="M268.2,82.4C280.2,87.4 288,99 288,112L288,192L400,192C497.2,192 576,270.8 576,368C576,481.3 494.5,531.9 475.8,542.1C473.3,543.5 470.5,544 467.7,544C456.8,544 448,535.1 448,524.3C448,516.8 452.3,509.9 457.8,504.8C467.2,496 480,478.4 480,448.1C480,395.1 437,352.1 384,352.1L288,352.1L288,432.1C288,445 280.2,456.7 268.2,461.7C256.2,466.7 242.5,463.9 233.3,454.8L73.3,294.8C60.8,282.3 60.8,262 73.3,249.5L233.3,89.5C242.5,80.3 256.2,77.6 268.2,82.6L268.2,82.4Z" style="fill:white;fill-opacity:0.8;fill-rule:nonzero;"/>
</svg>
